<svg xmlns="http://www.w3.org/2000/svg" xmlns:xlink="http://www.w3.org/1999/xlink" width="1000" zoomAndPan="magnify" viewBox="0 0 375 374.999991" height="1000" preserveAspectRatio="xMidYMid meet" version="1.0"><defs><g/><clipPath id="37a3ee8c85"><path d="M 61.605469 158.863281 L 156 158.863281 L 156 181.363281 L 61.605469 181.363281 Z M 61.605469 158.863281 " clip-rule="nonzero"/></clipPath><clipPath id="fe45e7fe96"><path d="M 220 153 L 317 153 L 317 169 L 220 169 Z M 220 153 " clip-rule="nonzero"/></clipPath><clipPath id="76d339f17c"><path d="M 222.332031 145.59375 L 316.523438 153.238281 L 314.703125 175.664062 L 220.511719 168.019531 Z M 222.332031 145.59375 " clip-rule="nonzero"/></clipPath><clipPath id="48b346ad87"><path d="M 314.835938 175.652344 L 220.644531 168.007812 L 222.464844 145.582031 L 316.652344 153.222656 Z M 314.835938 175.652344 " clip-rule="nonzero"/></clipPath><clipPath id="a7705fc778"><path d="M 314.835938 175.652344 L 220.644531 168.007812 L 222.464844 145.582031 L 316.652344 153.222656 Z M 314.835938 175.652344 " clip-rule="nonzero"/></clipPath></defs><g clip-path="url(#37a3ee8c85)"><path fill="#000000" d="M 64.820312 180.542969 C 65.054688 180 64.964844 179.339844 64.582031 178.941406 C 64.542969 178.902344 64.507812 178.851562 64.460938 178.820312 C 64.386719 178.773438 64.3125 178.707031 64.226562 178.640625 C 64.226562 178.640625 64.222656 178.632812 64.222656 178.625 C 64.214844 178.625 64.214844 178.625 64.214844 178.625 C 63.875 178.300781 63.554688 177.789062 63.351562 177.40625 C 63.34375 177.179688 63.359375 176.925781 63.394531 176.632812 C 63.554688 175.132812 64.769531 173.578125 67.042969 171.9375 C 68.324219 170.984375 69.9375 170.074219 71.890625 169.207031 C 73.914062 168.335938 76.363281 167.574219 79.226562 166.941406 C 85.441406 165.621094 91.4375 165.296875 97.222656 165.972656 C 102.925781 166.65625 108.777344 167.289062 114.796875 167.859375 C 118.089844 168.238281 121.421875 168.449219 124.769531 168.492188 C 128.117188 168.539062 131.644531 168.320312 135.335938 167.839844 C 143.371094 166.800781 149.328125 164.925781 153.195312 162.21875 C 154.074219 161.585938 154.871094 161.03125 155.609375 160.535156 C 155.679688 160.261719 155.761719 159.984375 155.839844 159.710938 C 155.804688 159.429688 155.765625 159.144531 155.722656 158.863281 C 154.8125 159.496094 153.777344 160.210938 152.570312 161.039062 C 148.609375 163.671875 142.859375 165.484375 135.296875 166.46875 C 128.875 167.335938 122.75 167.34375 116.957031 166.5 C 111.082031 165.664062 105.183594 165.039062 99.269531 164.617188 C 96.066406 164.402344 92.796875 164.339844 89.464844 164.460938 C 86.140625 164.574219 82.726562 165.03125 79.222656 165.816406 C 75.800781 166.597656 72.957031 167.484375 70.695312 168.460938 C 68.527344 169.515625 66.808594 170.5625 65.535156 171.597656 C 63.074219 173.667969 61.886719 175.59375 62 177.382812 L 62.066406 177.992188 C 62.082031 178.160156 62.105469 178.308594 62.136719 178.453125 C 62.15625 178.804688 62.15625 179.167969 62.121094 179.480469 C 62.097656 179.707031 62.113281 179.941406 62.136719 180.167969 C 62.195312 180.730469 62.789062 181.273438 63.433594 181.355469 " fill-opacity="1" fill-rule="nonzero"/></g><g fill="#000000" fill-opacity="1"><g transform="translate(154.484541, 183.268332)"><g><path d="M 0.597656 -24.046875 C -1.941406 -13.441406 -1.792969 8.289062 6.648438 7.019531 C 9.710938 6.574219 15.460938 0 18.96875 -6.574219 C 25.542969 -5.078125 33.085938 -9.933594 38.761719 -17.476562 C 38.761719 -17.851562 37.566406 -17.773438 37.269531 -17.402344 C 33.308594 -11.949219 25.316406 -6.050781 19.492188 -7.691406 C 25.394531 -20.238281 24.722656 -28.605469 19.71875 -29.648438 C 10.53125 -30.546875 7.691406 -12.25 17.699219 -7.09375 C 13.816406 0.597656 8.8125 5.378906 6.648438 5.75 C 2.613281 6.421875 2.914062 -11.652344 5.976562 -24.570312 C 6.871094 -28.230469 1.570312 -28.230469 0.597656 -24.046875 Z M 18.222656 -8.214844 C 9.035156 -13.144531 12.546875 -29.203125 19.269531 -28.679688 C 24.046875 -27.78125 23.449219 -18.671875 18.222656 -8.214844 Z M 18.222656 -8.214844 "/></g></g></g><g fill="#000000" fill-opacity="1"><g transform="translate(191.452926, 183.268332)"><g><path d="M 10.304688 9.558594 C 17.027344 4.554688 26.511719 -12.171875 30.621094 -17.550781 C 30.621094 -17.925781 29.648438 -17.925781 29.351562 -17.625 C 26.140625 -13.519531 15.386719 4.929688 8.960938 9.1875 C 0.894531 14.339844 2.6875 -0.972656 3.136719 -5.152344 C 3.734375 -11.277344 4.929688 -17.699219 5.675781 -20.761719 C 30.097656 -48.171875 27.183594 -62.660156 19.640625 -62.660156 C 10.457031 -62.660156 3.660156 -44.363281 0.671875 -25.617188 C -0.523438 -18.074219 -1.046875 -10.382812 -0.894531 -3.882812 C -0.820312 -0.222656 -0.820312 11.726562 5.152344 11.726562 C 6.574219 11.726562 8.289062 11.054688 10.304688 9.558594 Z M 5.898438 -22.703125 C 7.765625 -39.730469 13.890625 -60.71875 19.269531 -61.539062 C 25.617188 -62.0625 28.304688 -49.441406 5.898438 -22.703125 Z M 5.898438 -22.703125 "/></g></g></g><g clip-path="url(#fe45e7fe96)"><g clip-path="url(#76d339f17c)"><g clip-path="url(#48b346ad87)"><g clip-path="url(#a7705fc778)"><path fill="#000000" d="M 313.382812 153.78125 C 313.105469 154.300781 313.144531 154.96875 313.492188 155.398438 C 313.527344 155.4375 313.558594 155.492188 313.601562 155.527344 C 313.675781 155.578125 313.742188 155.652344 313.820312 155.726562 C 313.820312 155.726562 313.828125 155.734375 313.828125 155.742188 C 313.832031 155.742188 313.832031 155.742188 313.832031 155.742188 C 314.144531 156.09375 314.425781 156.628906 314.59375 157.027344 C 314.585938 157.253906 314.550781 157.507812 314.488281 157.796875 C 314.210938 159.273438 312.871094 160.726562 310.472656 162.179688 C 309.117188 163.027344 307.4375 163.804688 305.421875 164.507812 C 303.332031 165.214844 300.832031 165.773438 297.921875 166.171875 C 291.625 166.988281 285.621094 166.824219 279.910156 165.683594 C 274.28125 164.539062 268.5 163.4375 262.546875 162.378906 C 259.292969 161.738281 255.988281 161.257812 252.65625 160.945312 C 249.324219 160.628906 245.792969 160.558594 242.074219 160.742188 C 233.980469 161.125 227.890625 162.511719 223.816406 164.898438 C 222.890625 165.457031 222.050781 165.945312 221.277344 166.378906 C 221.179688 166.648438 221.078125 166.917969 220.976562 167.183594 C 220.992188 167.46875 221.007812 167.753906 221.023438 168.039062 C 221.984375 167.480469 223.074219 166.851562 224.34375 166.125 C 228.503906 163.820312 234.382812 162.480469 242 162.109375 C 248.472656 161.765625 254.574219 162.253906 260.28125 163.5625 C 266.070312 164.871094 271.898438 165.96875 277.757812 166.867188 C 280.933594 167.34375 284.191406 167.667969 287.519531 167.816406 C 290.84375 167.972656 294.285156 167.792969 297.839844 167.296875 C 301.3125 166.792969 304.21875 166.136719 306.550781 165.347656 C 308.796875 164.472656 310.59375 163.570312 311.949219 162.636719 C 314.570312 160.773438 315.90625 158.953125 315.941406 157.15625 L 315.921875 156.546875 C 315.921875 156.378906 315.910156 156.226562 315.890625 156.082031 C 315.898438 155.730469 315.925781 155.367188 315.988281 155.058594 C 316.03125 154.832031 316.035156 154.601562 316.03125 154.375 C 316.015625 153.804688 315.46875 153.21875 314.832031 153.082031 " fill-opacity="1" fill-rule="nonzero"/></g></g></g></g></svg>